<mxfile host="app.diagrams.net" modified="2023-05-05T15:42:10.655Z" agent="Mozilla/5.0 (Windows NT 10.0; Win64; x64; rv:109.0) Gecko/20100101 Firefox/112.0" etag="59PJs0bFVKOAFcPkqxxY" version="21.2.9" type="github" pages="4">
  <diagram id="C5RBs43oDa-KdzZeNtuy" name="m1">
    <mxGraphModel dx="2261" dy="821" grid="1" gridSize="10" guides="1" tooltips="1" connect="1" arrows="1" fold="1" page="1" pageScale="1" pageWidth="827" pageHeight="1169" math="0" shadow="0">
      <root>
        <mxCell id="WIyWlLk6GJQsqaUBKTNV-0" />
        <mxCell id="WIyWlLk6GJQsqaUBKTNV-1" parent="WIyWlLk6GJQsqaUBKTNV-0" />
        <mxCell id="WIyWlLk6GJQsqaUBKTNV-2" value="" style="rounded=0;html=1;jettySize=auto;orthogonalLoop=1;fontSize=11;endArrow=block;endFill=0;endSize=8;strokeWidth=1;shadow=0;labelBackgroundColor=none;edgeStyle=orthogonalEdgeStyle;" parent="WIyWlLk6GJQsqaUBKTNV-1" source="WIyWlLk6GJQsqaUBKTNV-3" edge="1">
          <mxGeometry relative="1" as="geometry">
            <mxPoint x="-346" y="220" as="targetPoint" />
          </mxGeometry>
        </mxCell>
        <mxCell id="WIyWlLk6GJQsqaUBKTNV-3" value="START" style="rounded=1;whiteSpace=wrap;html=1;fontSize=12;glass=0;strokeWidth=1;shadow=0;" parent="WIyWlLk6GJQsqaUBKTNV-1" vertex="1">
          <mxGeometry x="-406" y="120" width="120" height="40" as="geometry" />
        </mxCell>
        <mxCell id="zm4V85OgwgDdGTfpfrWM-28" style="edgeStyle=none;curved=1;rounded=0;orthogonalLoop=1;jettySize=auto;html=1;exitX=0.5;exitY=1;exitDx=0;exitDy=0;entryX=0.5;entryY=0;entryDx=0;entryDy=0;fontSize=12;startSize=8;endSize=8;" parent="WIyWlLk6GJQsqaUBKTNV-1" source="WIyWlLk6GJQsqaUBKTNV-6" target="zm4V85OgwgDdGTfpfrWM-24" edge="1">
          <mxGeometry relative="1" as="geometry" />
        </mxCell>
        <mxCell id="WIyWlLk6GJQsqaUBKTNV-6" value="Already a member?" style="rhombus;whiteSpace=wrap;html=1;shadow=0;fontFamily=Helvetica;fontSize=12;align=center;strokeWidth=1;spacing=6;spacingTop=-4;" parent="WIyWlLk6GJQsqaUBKTNV-1" vertex="1">
          <mxGeometry x="-396" y="220" width="100" height="80" as="geometry" />
        </mxCell>
        <mxCell id="XUE7TOstbBYD1Scq_L32-0" value="" style="endArrow=classic;html=1;rounded=0;fontSize=12;startSize=8;endSize=8;curved=1;exitX=0;exitY=0.5;exitDx=0;exitDy=0;" parent="WIyWlLk6GJQsqaUBKTNV-1" edge="1">
          <mxGeometry width="50" height="50" relative="1" as="geometry">
            <mxPoint x="-436" y="260" as="sourcePoint" />
            <mxPoint x="-436" y="260" as="targetPoint" />
            <Array as="points" />
          </mxGeometry>
        </mxCell>
        <mxCell id="XUE7TOstbBYD1Scq_L32-2" value="yes" style="text;html=1;align=center;verticalAlign=middle;resizable=0;points=[];autosize=1;strokeColor=none;fillColor=none;fontSize=16;" parent="WIyWlLk6GJQsqaUBKTNV-1" vertex="1">
          <mxGeometry x="-346" y="300" width="50" height="30" as="geometry" />
        </mxCell>
        <mxCell id="XUE7TOstbBYD1Scq_L32-3" value="" style="endArrow=classic;html=1;rounded=0;fontSize=12;startSize=8;endSize=8;curved=1;exitX=0;exitY=0.5;exitDx=0;exitDy=0;" parent="WIyWlLk6GJQsqaUBKTNV-1" source="WIyWlLk6GJQsqaUBKTNV-6" edge="1">
          <mxGeometry width="50" height="50" relative="1" as="geometry">
            <mxPoint x="-396" y="260" as="sourcePoint" />
            <mxPoint x="-436" y="260" as="targetPoint" />
            <Array as="points">
              <mxPoint x="-426" y="260" />
            </Array>
          </mxGeometry>
        </mxCell>
        <mxCell id="XUE7TOstbBYD1Scq_L32-5" value="no" style="text;html=1;strokeColor=none;fillColor=none;align=center;verticalAlign=middle;whiteSpace=wrap;rounded=0;fontSize=16;" parent="WIyWlLk6GJQsqaUBKTNV-1" vertex="1">
          <mxGeometry x="-446" y="230" width="60" height="30" as="geometry" />
        </mxCell>
        <mxCell id="XUE7TOstbBYD1Scq_L32-9" value="" style="edgeStyle=none;curved=1;rounded=0;orthogonalLoop=1;jettySize=auto;html=1;fontSize=12;startSize=8;endSize=8;" parent="WIyWlLk6GJQsqaUBKTNV-1" source="XUE7TOstbBYD1Scq_L32-7" target="XUE7TOstbBYD1Scq_L32-8" edge="1">
          <mxGeometry relative="1" as="geometry" />
        </mxCell>
        <mxCell id="zm4V85OgwgDdGTfpfrWM-0" style="edgeStyle=none;curved=1;rounded=0;orthogonalLoop=1;jettySize=auto;html=1;exitX=0.5;exitY=1;exitDx=0;exitDy=0;fontSize=12;startSize=8;endSize=8;" parent="WIyWlLk6GJQsqaUBKTNV-1" source="XUE7TOstbBYD1Scq_L32-7" edge="1">
          <mxGeometry relative="1" as="geometry">
            <mxPoint x="-481" y="340" as="targetPoint" />
          </mxGeometry>
        </mxCell>
        <mxCell id="XUE7TOstbBYD1Scq_L32-7" value="&lt;font style=&quot;font-size: 13px;&quot;&gt;Want to register?&lt;/font&gt;" style="rhombus;whiteSpace=wrap;html=1;fontSize=16;" parent="WIyWlLk6GJQsqaUBKTNV-1" vertex="1">
          <mxGeometry x="-526" y="220" width="90" height="80" as="geometry" />
        </mxCell>
        <mxCell id="XUE7TOstbBYD1Scq_L32-8" value="&lt;font style=&quot;font-size: 13px;&quot;&gt;insert registration form&lt;/font&gt;" style="rounded=0;whiteSpace=wrap;html=1;fontSize=16;" parent="WIyWlLk6GJQsqaUBKTNV-1" vertex="1">
          <mxGeometry x="-666" y="235" width="100" height="50" as="geometry" />
        </mxCell>
        <mxCell id="XUE7TOstbBYD1Scq_L32-10" value="yes" style="text;html=1;strokeColor=none;fillColor=none;align=center;verticalAlign=middle;whiteSpace=wrap;rounded=0;fontSize=16;" parent="WIyWlLk6GJQsqaUBKTNV-1" vertex="1">
          <mxGeometry x="-566" y="230" width="60" height="30" as="geometry" />
        </mxCell>
        <mxCell id="zm4V85OgwgDdGTfpfrWM-1" value="no" style="text;html=1;strokeColor=none;fillColor=none;align=center;verticalAlign=middle;whiteSpace=wrap;rounded=0;fontSize=16;" parent="WIyWlLk6GJQsqaUBKTNV-1" vertex="1">
          <mxGeometry x="-496" y="300" width="60" height="30" as="geometry" />
        </mxCell>
        <mxCell id="zm4V85OgwgDdGTfpfrWM-10" style="edgeStyle=none;curved=1;rounded=0;orthogonalLoop=1;jettySize=auto;html=1;exitX=0;exitY=0.5;exitDx=0;exitDy=0;fontSize=12;startSize=8;endSize=8;" parent="WIyWlLk6GJQsqaUBKTNV-1" source="zm4V85OgwgDdGTfpfrWM-2" edge="1">
          <mxGeometry relative="1" as="geometry">
            <mxPoint x="-566" y="390" as="targetPoint" />
          </mxGeometry>
        </mxCell>
        <mxCell id="zm4V85OgwgDdGTfpfrWM-19" style="edgeStyle=none;curved=1;rounded=0;orthogonalLoop=1;jettySize=auto;html=1;exitX=0.5;exitY=1;exitDx=0;exitDy=0;fontSize=12;startSize=8;endSize=8;" parent="WIyWlLk6GJQsqaUBKTNV-1" source="zm4V85OgwgDdGTfpfrWM-2" edge="1">
          <mxGeometry relative="1" as="geometry">
            <mxPoint x="-481" y="460" as="targetPoint" />
          </mxGeometry>
        </mxCell>
        <mxCell id="zm4V85OgwgDdGTfpfrWM-2" value="&lt;font style=&quot;font-size: 12px;&quot;&gt;log in via google&lt;/font&gt;" style="rhombus;whiteSpace=wrap;html=1;fontSize=16;" parent="WIyWlLk6GJQsqaUBKTNV-1" vertex="1">
          <mxGeometry x="-521" y="350" width="80" height="80" as="geometry" />
        </mxCell>
        <mxCell id="zm4V85OgwgDdGTfpfrWM-22" style="edgeStyle=none;curved=1;rounded=0;orthogonalLoop=1;jettySize=auto;html=1;exitX=0.5;exitY=1;exitDx=0;exitDy=0;fontSize=12;startSize=8;endSize=8;entryX=0.5;entryY=0;entryDx=0;entryDy=0;" parent="WIyWlLk6GJQsqaUBKTNV-1" source="zm4V85OgwgDdGTfpfrWM-8" target="zm4V85OgwgDdGTfpfrWM-23" edge="1">
          <mxGeometry relative="1" as="geometry">
            <mxPoint x="-481" y="530" as="targetPoint" />
          </mxGeometry>
        </mxCell>
        <mxCell id="zm4V85OgwgDdGTfpfrWM-8" value="&lt;font style=&quot;font-size: 13px;&quot;&gt;google authentication&lt;/font&gt;" style="rounded=0;whiteSpace=wrap;html=1;fontSize=16;" parent="WIyWlLk6GJQsqaUBKTNV-1" vertex="1">
          <mxGeometry x="-533.5" y="460" width="105" height="40" as="geometry" />
        </mxCell>
        <mxCell id="zm4V85OgwgDdGTfpfrWM-12" value="no" style="text;html=1;strokeColor=none;fillColor=none;align=center;verticalAlign=middle;whiteSpace=wrap;rounded=0;fontSize=16;" parent="WIyWlLk6GJQsqaUBKTNV-1" vertex="1">
          <mxGeometry x="-566" y="360" width="60" height="30" as="geometry" />
        </mxCell>
        <mxCell id="zm4V85OgwgDdGTfpfrWM-17" value="&lt;font style=&quot;font-size: 12px;&quot;&gt;Exit&lt;/font&gt;" style="strokeWidth=2;html=1;shape=mxgraph.flowchart.terminator;whiteSpace=wrap;fontSize=16;" parent="WIyWlLk6GJQsqaUBKTNV-1" vertex="1">
          <mxGeometry x="-616" y="370" width="50" height="40" as="geometry" />
        </mxCell>
        <mxCell id="zm4V85OgwgDdGTfpfrWM-21" value="yes" style="text;html=1;strokeColor=none;fillColor=none;align=center;verticalAlign=middle;whiteSpace=wrap;rounded=0;fontSize=16;" parent="WIyWlLk6GJQsqaUBKTNV-1" vertex="1">
          <mxGeometry x="-488.5" y="420" width="60" height="30" as="geometry" />
        </mxCell>
        <mxCell id="zm4V85OgwgDdGTfpfrWM-23" value="&lt;font style=&quot;font-size: 13px;&quot;&gt;user logged in succesfully&lt;/font&gt;" style="rounded=0;whiteSpace=wrap;html=1;fontSize=16;" parent="WIyWlLk6GJQsqaUBKTNV-1" vertex="1">
          <mxGeometry x="-533.5" y="630" width="107" height="40" as="geometry" />
        </mxCell>
        <mxCell id="zm4V85OgwgDdGTfpfrWM-29" style="edgeStyle=none;curved=1;rounded=0;orthogonalLoop=1;jettySize=auto;html=1;exitX=0.5;exitY=1;exitDx=0;exitDy=0;fontSize=12;startSize=8;endSize=8;" parent="WIyWlLk6GJQsqaUBKTNV-1" source="zm4V85OgwgDdGTfpfrWM-24" target="zm4V85OgwgDdGTfpfrWM-27" edge="1">
          <mxGeometry relative="1" as="geometry" />
        </mxCell>
        <mxCell id="zm4V85OgwgDdGTfpfrWM-31" style="edgeStyle=none;curved=1;rounded=0;orthogonalLoop=1;jettySize=auto;html=1;exitX=1;exitY=0.5;exitDx=0;exitDy=0;fontSize=12;startSize=8;endSize=8;" parent="WIyWlLk6GJQsqaUBKTNV-1" source="zm4V85OgwgDdGTfpfrWM-24" edge="1">
          <mxGeometry relative="1" as="geometry">
            <mxPoint x="-236" y="355" as="targetPoint" />
          </mxGeometry>
        </mxCell>
        <mxCell id="zm4V85OgwgDdGTfpfrWM-24" value="&lt;font style=&quot;font-size: 13px;&quot;&gt;Insert email and password&lt;/font&gt;" style="rounded=0;whiteSpace=wrap;html=1;fontSize=16;" parent="WIyWlLk6GJQsqaUBKTNV-1" vertex="1">
          <mxGeometry x="-396" y="330" width="100" height="50" as="geometry" />
        </mxCell>
        <mxCell id="zm4V85OgwgDdGTfpfrWM-26" value="&lt;font style=&quot;font-size: 14px;&quot;&gt;login failed&lt;/font&gt;" style="rounded=0;whiteSpace=wrap;html=1;fontSize=16;" parent="WIyWlLk6GJQsqaUBKTNV-1" vertex="1">
          <mxGeometry x="-236" y="331.25" width="76" height="47.5" as="geometry" />
        </mxCell>
        <mxCell id="zm4V85OgwgDdGTfpfrWM-27" value="&lt;font style=&quot;font-size: 14px;&quot;&gt;valid user credentials&lt;/font&gt;" style="rhombus;whiteSpace=wrap;html=1;fontSize=16;" parent="WIyWlLk6GJQsqaUBKTNV-1" vertex="1">
          <mxGeometry x="-406" y="420" width="120" height="90" as="geometry" />
        </mxCell>
        <mxCell id="zm4V85OgwgDdGTfpfrWM-30" value="Text" style="text;html=1;strokeColor=none;fillColor=none;align=center;verticalAlign=middle;whiteSpace=wrap;rounded=0;fontSize=16;" parent="WIyWlLk6GJQsqaUBKTNV-1" vertex="1">
          <mxGeometry x="-266" y="285" width="60" height="30" as="geometry" />
        </mxCell>
      </root>
    </mxGraphModel>
  </diagram>
  <diagram id="-iZ7gx4boMv2KKmEZ79i" name="m2">
    <mxGraphModel dx="1434" dy="821" grid="0" gridSize="10" guides="1" tooltips="1" connect="1" arrows="1" fold="1" page="0" pageScale="1" pageWidth="850" pageHeight="1100" math="0" shadow="0">
      <root>
        <mxCell id="0" />
        <mxCell id="1" parent="0" />
        <mxCell id="WpzBO3-bxISoNSvcOAtE-1" value="" style="rounded=1;whiteSpace=wrap;html=1;" vertex="1" parent="1">
          <mxGeometry x="184" y="65" width="120" height="60" as="geometry" />
        </mxCell>
      </root>
    </mxGraphModel>
  </diagram>
  <diagram id="HfzF1jKo9Y1WfONMFjhq" name="m3">
    <mxGraphModel dx="1115" dy="719" grid="0" gridSize="10" guides="1" tooltips="1" connect="1" arrows="1" fold="1" page="0" pageScale="1" pageWidth="850" pageHeight="1100" math="0" shadow="0">
      <root>
        <mxCell id="0" />
        <mxCell id="1" parent="0" />
      </root>
    </mxGraphModel>
  </diagram>
  <diagram id="zbgfwv33sZD06-Rs9-dv" name="m3">
    <mxGraphModel dx="1115" dy="719" grid="0" gridSize="10" guides="1" tooltips="1" connect="1" arrows="1" fold="1" page="0" pageScale="1" pageWidth="850" pageHeight="1100" math="0" shadow="0">
      <root>
        <mxCell id="0" />
        <mxCell id="1" parent="0" />
      </root>
    </mxGraphModel>
  </diagram>
</mxfile>
